<svg xmlns="http://www.w3.org/2000/svg" viewBox="0 0 96 96"><style type="text/css">  
	.st0{fill:#a10e27;}
</style><path class="st0" d="M12 52h62.3L52.9 73.5c-1.6 1.6-1.6 4.1 0 5.7 1.6 1.6 4.1 1.6 5.7 0l28.3-28.3 0 0c0.2-0.2 0.4-0.4 0.5-0.6 0.1-0.1 0.1-0.2 0.2-0.3 0.1-0.1 0.1-0.2 0.2-0.4 0.1-0.1 0.1-0.3 0.1-0.4 0-0.1 0.1-0.2 0.1-0.3C88 48.5 88 48.3 88 48l0 0c0 0 0 0 0 0 0-0.3 0-0.5-0.1-0.8 0-0.1-0.1-0.2-0.1-0.3 0-0.1-0.1-0.3-0.1-0.4 -0.1-0.1-0.1-0.3-0.2-0.4 -0.1-0.1-0.1-0.2-0.2-0.3 -0.1-0.2-0.3-0.4-0.5-0.6L58.5 16.9c-1.6-1.6-4.1-1.6-5.7 0 -1.6 1.6-1.6 4.1 0 5.7L74.3 44H12c-2.2 0-4 1.8-4 4S9.8 52 12 52z"/></svg>
