<svg xmlns="http://www.w3.org/2000/svg" viewBox="0 0 128 128"><style type="text/css">  
	.st2{fill:#A5A6B1;}
</style><path class="st2" d="M78.5 107.4h-76c-1.1 0-2-0.9-2-2V14.7c0-1.1 0.9-2 2-2h105.9c1.1 0 2 0.9 2 2v59.4c0 0.6-0.3 1.2-0.8 1.6s-1.2 0.5-1.8 0.3c-2.1-0.7-4.3-1-6.5-1 -12.2 0-22.2 10-22.2 22.2 0 2.5 0.4 5.1 1.3 7.5 0.2 0.6 0.1 1.3-0.2 1.8C79.8 107.1 79.2 107.4 78.5 107.4zM4.5 103.4h71.3c-0.5-2-0.8-4.1-0.8-6.2C75 82.7 86.8 71 101.2 71c1.7 0 3.4 0.2 5.1 0.5V16.7H4.5V103.4z"/><path class="st2" d="M108.4 36.4H2.5c-0.6 0-1-0.4-1-1V14.9c0-0.6 0.4-1 1-1h105.9c0.6 0 1 0.4 1 1v20.5C109.4 35.9 109 36.4 108.4 36.4zM3.5 34.4h103.9V15.9H3.5V34.4z"/><path class="st2" d="M93.6 24.8c-1.1 0-2-0.9-2-2V6.5c0-1.1 0.9-2 2-2s2 0.9 2 2v16.3C95.6 23.9 94.7 24.8 93.6 24.8z"/><path class="st2" d="M68.2 24.8c-1.1 0-2-0.9-2-2V6.5c0-1.1 0.9-2 2-2s2 0.9 2 2v16.3C70.2 23.9 69.3 24.8 68.2 24.8z"/><path class="st2" d="M42.8 24.8c-1.1 0-2-0.9-2-2V6.5c0-1.1 0.9-2 2-2s2 0.9 2 2v16.3C44.8 23.9 43.9 24.8 42.8 24.8z"/><path class="st2" d="M17.3 24.8c-1.1 0-2-0.9-2-2V6.5c0-1.1 0.9-2 2-2s2 0.9 2 2v16.3C19.3 23.9 18.5 24.8 17.3 24.8z"/><path class="st2" d="M32.3 62H18.2c-0.6 0-1-0.4-1-1V49.8c0-0.6 0.4-1 1-1h14.1c0.6 0 1 0.4 1 1V61C33.3 61.5 32.8 62 32.3 62zM19.2 60h12.1v-9.1H19.2V60z"/><path class="st2" d="M62.5 62H48.4c-0.6 0-1-0.4-1-1V49.8c0-0.6 0.4-1 1-1h14.1c0.6 0 1 0.4 1 1V61C63.5 61.5 63.1 62 62.5 62zM49.4 60h12.1v-9.1H49.4V60z"/><path class="st2" d="M92.7 62H78.6c-0.6 0-1-0.4-1-1V49.8c0-0.6 0.4-1 1-1h14.1c0.6 0 1 0.4 1 1V61C93.7 61.5 93.3 62 92.7 62zM79.6 60h12.1v-9.1H79.6V60z"/><path class="st2" d="M32.3 88.4H18.2c-0.6 0-1-0.4-1-1V76.3c0-0.6 0.4-1 1-1h14.1c0.6 0 1 0.4 1 1v11.1C33.3 88 32.8 88.4 32.3 88.4zM19.2 86.4h12.1v-9.1H19.2V86.4z"/><path class="st2" d="M62.5 88.4H48.4c-0.6 0-1-0.4-1-1V76.3c0-0.6 0.4-1 1-1h14.1c0.6 0 1 0.4 1 1v11.1C63.5 88 63.1 88.4 62.5 88.4zM49.4 86.4h12.1v-9.1H49.4V86.4z"/><path class="st2" d="M101.3 123.5c-11 0-20.9-7-24.6-17.3 -1-2.9-1.6-5.9-1.6-8.9 0-14.5 11.8-26.2 26.2-26.2 2.6 0 5.2 0.4 7.7 1.2l0 0c11.1 3.4 18.5 13.5 18.5 25.1C127.5 111.7 115.7 123.5 101.3 123.5zM101.3 75.1c-12.2 0-22.2 10-22.2 22.2 0 2.5 0.4 5.1 1.3 7.5 3.2 8.8 11.6 14.7 20.9 14.7 12.2 0 22.2-10 22.2-22.2 0-9.8-6.3-18.3-15.7-21.2l0 0C105.7 75.4 103.5 75.1 101.3 75.1z"/><path class="st2" d="M113.9 98.3h-12.6c-0.6 0-1-0.4-1-1V82c0-0.6 0.4-1 1-1s1 0.4 1 1v14.2h11.6c0.6 0 1 0.4 1 1C114.9 97.8 114.4 98.3 113.9 98.3z"/></svg>