<?xml version="1.0" encoding="utf-8"?>
<!-- Generator: Adobe Illustrator 23.0.0, SVG Export Plug-In . SVG Version: 6.00 Build 0)  -->
<svg version="1.1" id="Layer_1" xmlns="http://www.w3.org/2000/svg" xmlns:xlink="http://www.w3.org/1999/xlink" x="0px" y="0px"
	 viewBox="0 0 512 512" style="enable-background:new 0 0 512 512;" xml:space="preserve">
<style type="text/css">
	.st0{fill:#FFFFFF;}
</style>
<g>
	<path class="st0" d="M509.6,386.5V2H2.4v384.5h156.2c2.9,4.5,6.2,8.8,9.7,12.8L128,469.1l45.6,2.7l25.2,38.2l43.1-74.7
		c8.3,1,20.1-0.4,26.9-1.8L313,510l25.2-38.2l45.7-2.7l-47-81.5c0.2-0.4,0.4-0.8,0.7-1.1L509.6,386.5L509.6,386.5z M18.8,370.1V18.4
		h474.5v351.8H346.2c3.2-7.8,5.5-16,6.8-24.5h115.7V42.9H43.3v302.7h99.8c1.3,8.5,3.6,16.8,6.8,24.5H18.8z M141.8,329.2H59.7v-270
		h392.7v270h-98c0-58.6-47.7-106.3-106.3-106.3S141.8,270.6,141.8,329.2z M197.9,478.9L182.8,456l-27.4-1.6l24.9-43.2
		c12.6,10.4,27.7,17.9,44.2,21.7L197.9,478.9z M158,329.2c0-49.6,40.4-90,90-90s90,40.4,90,90s-40.4,90-90,90S158,378.8,158,329.2z
		 M356.5,454.3l-27.4,1.6L314,478.8l-28.9-50.1c15.7-5.9,29.7-15.3,40.9-27.4L356.5,454.3z"/>
	<path class="st0" d="M248,263.8c-36.1,0-65.4,29.4-65.4,65.4s29.4,65.4,65.4,65.4s65.4-29.4,65.4-65.4S284.1,263.8,248,263.8z
		 M248,378.3c-27.1,0-49.1-22-49.1-49.1s22-49.1,49.1-49.1s49.1,22,49.1,49.1S275.1,378.3,248,378.3z"/>
	<rect x="92.4" y="161.6" class="st0" width="327.2" height="16.4"/>
	<rect x="92.4" y="115.6" class="st0" width="327.2" height="16.4"/>
</g>
</svg>
