<svg xmlns="http://www.w3.org/2000/svg" viewBox="0 0 1024 1024"><style type="text/css">  
	.st1{fill:#A5A6B1;}
</style><path class="st1" d="M234 683.1H118V329h116V683.1zM138 663.1h76V349h-76V663.1z"/><path class="st1" d="M906 683.1H790V329h116V683.1zM810 663.1h76V349h-76V663.1z"/><path class="st1" d="M382 558.7c-8.1 0-16.5-2.2-24.5-6.6 -17.2-9.5-27.5-26.8-27.5-46.1 0-10.7 7.5-23.5 22.8-39.1 12-12.2 28.9-26.1 48.9-40.1 38.9-27.4 82.1-50.8 107.5-58.1 24.1-7 90.8-6.4 94.5-6.3 17.9 0 37.2-7.2 37.2-23 0-15.6-18.7-23.8-37.3-23.8H460c-24.3 0-37.9 11.5-55.2 26.1 -21.4 18.1-48.1 40.7-102.3 40.7H224v-20h78.5c46.9 0 68.5-18.3 89.4-36 17.9-15.2 36.5-30.9 68.1-30.9h143.7c37.6 0 57.3 22 57.3 43.8 0 20.7-17.9 43-57.3 43h-0.1c-18.7-0.2-71 0.4-88.8 5.5 -23.1 6.7-64.9 29.4-101.5 55.3C369.8 473.8 350 497.2 350 506c0 11.9 6.4 22.6 17.2 28.6 8.7 4.8 18.3 5.4 24.5 1.6 12.4-7.7 24.2-16.3 35.7-24.6 34.8-25.2 67.6-49 111.7-49h133v20H539c-37.6 0-66.5 20.9-99.9 45.2 -11.7 8.5-23.8 17.3-36.8 25.4C396.4 556.8 389.3 558.7 382 558.7z"/><rect x="608" y="362.4" class="st1" width="192" height="20"/><path class="st1" d="M517.3 728.4c-13.4 0-27.6-1.4-42.6-4.9 -74.5-17.1-112.8-53.1-146.5-84.8 -16-15.1-31.1-29.3-48.1-38.9 -11.6-6.6-45.9-14.6-58.1-17.2L226 563c4.8 1 47.4 10.1 63.9 19.4 19.1 10.8 35.1 25.8 52 41.7 31.9 30 68.1 64 137.3 79.9 38.9 8.9 77.2 4.4 113.8-13.4 27.7-13.5 43.9-30 44.1-30.1l14.3 13.9c-0.7 0.8-18.4 18.7-48.9 33.8C582.1 718.3 552.7 728.4 517.3 728.4z"/><path class="st1" d="M700.6 705.1c-15.4 0-31.1-7-46.8-21l-0.6-0.6L555.6 582l14.4-13.8 97.2 101.3c12.6 11.1 24.4 16.3 35.3 15.6 11.7-0.8 19.6-8.5 22.4-11.8 2.7-3.2 7.6-11.3 8.5-22 1-12.3-3.6-23.9-13.7-34.5l-132-137.3 14.4-13.9 132 137.3c17.8 18.6 20.2 37.5 19.2 50 -1.2 14.7-7.7 26.9-13.3 33.4 -4.5 5.2-17 17.4-36.2 18.6C702.8 705.1 701.7 705.1 700.6 705.1z"/><path class="st1" d="M721 605.2l-12.2-15.8c34.3-26.4 51.9-26.6 90.1-26.6 0.2 0 0.4 0 0.6 0h0.6v20h-0.6C762.5 582.8 750 582.8 721 605.2z"/><path class="st1" d="M512 906c-63.6 0-126.7-15.5-182.6-44.8 -54.1-28.4-101.6-69.6-137.4-119.4l16.2-11.7c34 47.2 79.1 86.4 130.5 113.3 53.1 27.8 113 42.5 173.4 42.5s120.3-14.7 173.4-42.5c51.4-26.9 96.5-66.1 130.5-113.3l16.2 11.7c-35.8 49.7-83.3 91-137.4 119.4C638.7 890.5 575.6 906 512 906z"/><path class="st1" d="M233.2 262.7l-14.9-13.3c36.6-40.9 80.4-73.2 130.1-95.9C399.9 129.9 455 118 512 118s112.1 11.9 163.5 35.4c49.7 22.7 93.5 55 130.1 95.9l-14.9 13.3c-34.8-38.8-76.3-69.5-123.5-91C618.4 149.3 566.2 138 512 138s-106.4 11.3-155.2 33.6C309.6 193.2 268 223.8 233.2 262.7z"/></svg>