<svg xmlns="http://www.w3.org/2000/svg" viewBox="0 0 32 32"><style type="text/css">  
	.st0{fill:none;stroke:#A5A6B1;stroke-linecap:round;stroke-linejoin:round;}
</style><circle class="st0" cx="5.5" cy="4.5" r="3"/><path class="st0" d="M2.5 13.5v6h-1c-0.6 0-1-0.4-1-1v-6.4c0-0.9 0.6-1.7 1.5-1.9l2.5-0.6 1 1 1-1h10c0.6 0 1 0.4 1 1l0 0c0 0.6-0.4 1-1 1h-7c-0.6 0-1 0.4-1 1v7L7.6 30.6c0 0.5-0.5 0.9-1 0.9H4.4c-0.5 0-1-0.4-1-0.9L2.5 19.5"/><polyline class="st0" points="10.5 9.5 10.5 1.5 30.5 1.5 30.5 18.5 10.5 18.5 10.5 11.5 "/><line class="st0" x1="10.5" y1="20.5" x2="30.5" y2="20.5"/><polyline class="st0" points="20.5 20.5 20.5 25.5 14.5 31.5 "/><line class="st0" x1="20.5" y1="25.5" x2="26.5" y2="31.5"/><line class="st0" x1="9.5" y1="1.5" x2="31.5" y2="1.5"/><line class="st0" x1="20.5" y1="1.5" x2="20.5" y2="0.5"/></svg>