<svg xmlns="http://www.w3.org/2000/svg" viewBox="0 0 512 512"><style type="text/css">  
	.st1{fill:#A5A6B1;}
</style><path class="st1" d="M182 72.3V27c0-3.9-3.2-7-7.1-7l-1 0c-3.8 0-6.9 3.1-6.9 7v44.7c-4.8 2.5-8 7.5-8 13.3 0 8.3 6.7 15 15 15s15-6.7 15-15C189 79.7 186.2 75 182 72.3z"/><path class="st1" d="M264 72.3V27c0-3.9-3.2-7-7.1-7l-1 0c-3.8 0-6.9 3.1-6.9 7v44.7c-4.8 2.5-8 7.5-8 13.3 0 8.3 6.7 15 15 15s15-6.7 15-15C271 79.7 268.2 75 264 72.3z"/><rect x="279" y="45" class="st1" width="38" height="15"/><rect x="197" y="45" class="st1" width="37" height="15"/><path class="st1" d="M393 45h-31v15h31c8.3 0 14 5.7 14 14v389c0 8.3-5.7 16-14 16H121c-8.3 0-16-7.7-16-16V74c0-8.3 7.7-14 16-14h31V45h-31c-16.5 0-31 12.5-31 29v389c0 16.5 14.5 31 31 31h272c16.5 0 29-14.5 29-31V74C422 57.5 409.5 45 393 45z"/><polygon class="st1" points="357 173.8 357 160 155 160 155 175 356.3 175 "/><polygon class="st1" points="357 223.8 357 210 155 210 155 225 356.3 225 "/><polygon class="st1" points="357 273.8 357 260 155 260 155 275 356.3 275 "/><polygon class="st1" points="357 323.8 357 310 155 310 155 325 356.3 325 "/><polygon class="st1" points="357 373.8 357 360 155 360 155 375 356.3 375 "/><polygon class="st1" points="357 423.8 357 410 155 410 155 425 356.3 425 "/><path class="st1" d="M347 72.3V27c0-3.9-3.2-7-7.1-7l-1 0c-3.8 0-6.9 3.1-6.9 7v44.7c-4.8 2.5-8 7.5-8 13.3 0 8.3 6.7 15 15 15s15-6.7 15-15C354 79.7 351.2 75 347 72.3z"/></svg>