<?xml version="1.0" encoding="utf-8"?>
<!-- Generator: Adobe Illustrator 23.0.0, SVG Export Plug-In . SVG Version: 6.00 Build 0)  -->
<svg version="1.1" id="Layer_1" xmlns="http://www.w3.org/2000/svg" xmlns:xlink="http://www.w3.org/1999/xlink" x="0px" y="0px"
	 viewBox="0 0 100 100" style="enable-background:new 0 0 100 100;" xml:space="preserve">
<style type="text/css">
	.st0{fill:#FFFFFF;}
</style>
<g id="Guides">
</g>
<g id="_x32_0_icons">
	<path class="st0" d="M73.7,48.5L40.2,29.1c-0.5-0.3-1.2-0.3-1.8,0c-0.5,0.3-0.9,0.9-0.9,1.5v38.6c0,0.6,0.3,1.2,0.9,1.5
		c0.3,0.2,0.6,0.2,0.9,0.2c0.3,0,0.6-0.1,0.9-0.2l33.5-19.3c0.5-0.3,0.9-0.9,0.9-1.5S74.2,48.8,73.7,48.5z"/>
	<path class="st0" d="M50,5C25.2,5,5,25.2,5,50s20.2,45,45,45s45-20.2,45-45S74.8,5,50,5z M50,91.2C27.3,91.2,8.8,72.7,8.8,50
		S27.3,8.8,50,8.8S91.2,27.3,91.2,50S72.7,91.2,50,91.2z"/>
</g>
</svg>
